<?xml version="1.0" standalone="no"?>
<!DOCTYPE svg PUBLIC "-//W3C//DTD SVG 20010904//EN"
 "http://www.w3.org/TR/2001/REC-SVG-20010904/DTD/svg10.dtd">
<svg version="1.0" xmlns="http://www.w3.org/2000/svg"
 width="512.000000pt" height="512.000000pt" viewBox="0 0 512.000000 512.000000"
 preserveAspectRatio="xMidYMid meet">
<metadata>
Created by potrace 1.11, written by Peter Selinger 2001-2013
</metadata>
<g transform="translate(0.000000,512.000000) scale(0.100000,-0.100000)"
fill="#000000" stroke="none">
<path d="M3640 4512 c0 -4 11 -104 24 -222 14 -118 29 -260 35 -314 8 -81 14
-103 34 -125 254 -281 446 -1002 424 -1591 -23 -607 -219 -1020 -570 -1201
-95 -49 -108 -53 -187 -57 -59 -3 -106 1 -150 12 -109 28 -276 119 -243 133
23 9 221 160 290 220 94 82 199 205 315 368 118 165 188 303 225 440 23 87 26
120 27 255 0 176 -15 251 -84 418 -73 173 -164 273 -325 352 -126 63 -216 83
-375 84 -156 0 -246 -20 -362 -81 -78 -41 -191 -141 -228 -202 -14 -22 -27
-40 -30 -40 -3 0 -21 22 -39 50 -68 100 -209 190 -360 231 -112 30 -322 30
-446 0 -125 -31 -245 -93 -315 -161 -138 -136 -232 -409 -217 -630 7 -104 47
-291 83 -392 114 -317 374 -640 728 -903 44 -33 45 -33 -64 -75 -198 -77 -377
-54 -572 75 -89 60 -206 185 -251 272 -50 94 -92 228 -107 338 -20 145 -8 438
23 604 109 566 438 1300 779 1738 27 35 47 66 45 68 -16 16 -584 -315 -640
-372 -21 -21 -65 -78 -96 -125 -32 -47 -77 -110 -101 -140 -192 -242 -365
-667 -439 -1079 -35 -194 -44 -329 -38 -539 6 -220 23 -320 83 -493 106 -306
345 -632 576 -783 137 -91 332 -166 483 -186 120 -16 289 -7 395 21 142 36
296 116 412 212 l59 49 81 -52 c151 -97 390 -190 573 -224 139 -26 373 -31
472 -11 278 56 609 282 781 533 154 225 218 412 269 783 23 167 27 229 27 435
0 255 -11 347 -70 626 -104 493 -353 1025 -658 1405 -76 95 -254 284 -267 284
-5 0 -9 -3 -9 -8z m267 -287 c168 -208 386 -587 486 -845 154 -399 226 -732
243 -1126 5 -111 3 -167 -4 -180 -9 -15 -11 -6 -12 46 0 89 -26 289 -56 440
-113 568 -399 1196 -728 1600 -74 91 -73 94 -52 -145 22 -241 24 -229 -23
-175 -35 40 -40 53 -46 115 -3 39 -17 162 -31 275 -35 297 -40 283 67 170 50
-52 120 -130 156 -175z m-2227 -117 c-228 -301 -481 -795 -630 -1225 -295
-853 -220 -1478 211 -1745 214 -134 405 -150 615 -54 70 33 71 33 95 15 l24
-19 -25 -21 c-34 -29 -125 -73 -185 -90 -77 -22 -286 -19 -355 5 -375 126
-614 417 -685 831 -25 143 -23 389 4 572 64 429 245 909 471 1247 37 56 77
110 89 120 25 23 27 36 6 36 -9 0 -86 -36 -171 -80 -143 -73 -154 -77 -137
-51 47 75 138 180 168 194 18 9 107 60 197 113 157 95 329 193 336 194 2 0
-11 -19 -28 -42z m1600 -859 c155 -36 308 -127 388 -232 84 -108 160 -309 183
-484 22 -167 -13 -365 -95 -538 -25 -52 -46 -95 -48 -95 -2 0 11 44 28 98 42
124 54 200 54 338 0 179 -43 355 -128 519 -77 148 -230 261 -409 301 -111 25
-281 16 -388 -20 -148 -50 -269 -137 -355 -255 -25 -34 -47 -61 -50 -60 -3 0
-18 28 -35 62 -46 94 -158 202 -265 254 -116 56 -192 73 -332 73 -138 0 -238
-22 -348 -77 -187 -94 -331 -320 -375 -590 l-14 -88 5 90 c13 198 104 420 215
526 60 57 179 120 285 151 69 20 100 23 249 23 157 -1 176 -3 250 -28 44 -14
109 -43 144 -64 73 -43 167 -132 196 -186 11 -20 22 -37 25 -37 3 0 15 17 27
38 64 113 204 221 344 266 153 49 282 54 449 15z m827 -241 c-3 -8 -6 -5 -6 6
-1 11 2 17 5 13 3 -3 4 -12 1 -19z m10 -50 c-3 -8 -6 -5 -6 6 -1 11 2 17 5 13
3 -3 4 -12 1 -19z m10 -50 c-3 -7 -5 -2 -5 12 0 14 2 19 5 13 2 -7 2 -19 0
-25z m10 -55 c-3 -10 -5 -4 -5 12 0 17 2 24 5 18 2 -7 2 -21 0 -30z m38 -213
c23 -166 31 -534 16 -686 -40 -399 -159 -687 -360 -877 -89 -83 -218 -157
-309 -176 -177 -37 -433 16 -589 121 l-62 42 57 31 56 31 50 -33 c125 -82 291
-125 407 -104 162 28 352 165 475 341 125 181 214 455 244 759 12 125 13 403
1 526 -19 192 -21 222 -12 185 5 -19 17 -91 26 -160z m-2037 5 c92 -22 165
-60 225 -117 l52 -50 -50 42 c-213 181 -538 148 -652 -67 -49 -91 -66 -164
-61 -252 10 -146 73 -266 223 -417 182 -185 546 -418 622 -399 50 12 289 137
388 203 135 89 288 242 338 338 89 171 90 341 4 514 -55 110 -151 167 -302
177 -148 10 -279 -40 -387 -147 -37 -37 -63 -59 -57 -49 5 10 32 41 61 69 129
127 366 184 540 130 120 -37 178 -97 225 -231 41 -120 33 -258 -23 -386 -97
-223 -369 -461 -717 -629 l-98 -47 -49 20 c-144 61 -379 230 -531 382 -215
216 -313 428 -280 603 17 84 65 180 112 223 102 92 262 126 417 90z m54 -45
c109 -34 204 -114 247 -210 l18 -40 46 60 c198 254 599 263 717 15 169 -355
-32 -685 -588 -964 -69 -35 -135 -61 -152 -61 -40 0 -149 55 -285 145 -413
272 -591 541 -519 786 34 117 99 204 184 249 83 44 226 53 332 20z"/>
</g>
</svg>
